Normalized EMG Linear Envelopes
nRows=27
nColumns=17

endheader
time	        VM	        VL	        RF	       GRA	        TA	   ADDLONG	   SEMIMEM	      BFLH	        GM	        GL	       TFL	   GLUTMAX	   GLUTMED	      PIRI	    OBTINT	        QF	
1.2785	  0.007737	  0.030627	  0.040370	  0.424907	  0.186521	  0.467436	  0.087621	  0.018154	  0.007999	  0.003421	  0.010739	  0.059115	  0.539722	  0.257656	  0.148947	  1.100899	
1.279	  0.007873	  0.030657	  0.040857	  0.423837	  0.187544	  0.463838	  0.086600	  0.017714	  0.007658	  0.002941	  0.010870	  0.059290	  0.537805	  0.253795	  0.147608	  1.090590	
1.2795	  0.008004	  0.030684	  0.041356	  0.422710	  0.188544	  0.460226	  0.085590	  0.017289	  0.007338	  0.002482	  0.011004	  0.059465	  0.535820	  0.250031	  0.146257	  1.080207	
1.28	  0.008133	  0.030708	  0.041868	  0.421528	  0.189520	  0.456604	  0.084591	  0.016877	  0.007040	  0.002041	  0.011141	  0.059637	  0.533767	  0.246361	  0.144896	  1.069760	
1.2805	  0.008258	  0.030731	  0.042393	  0.420294	  0.190473	  0.452976	  0.083602	  0.016479	  0.006762	  0.001619	  0.011281	  0.059808	  0.531647	  0.242782	  0.143526	  1.059259	
1.281	  0.008379	  0.030751	  0.042930	  0.419010	  0.191401	  0.449345	  0.082624	  0.016094	  0.006504	  0.001216	  0.011425	  0.059977	  0.529460	  0.239293	  0.142146	  1.048714	
1.2815	  0.008497	  0.030769	  0.043481	  0.417678	  0.192305	  0.445715	  0.081657	  0.015722	  0.006267	  0.000831	  0.011572	  0.060145	  0.527205	  0.235892	  0.140758	  1.038135	
1.282	  0.008612	  0.030785	  0.044046	  0.416303	  0.193184	  0.442091	  0.080701	  0.015364	  0.006048	  0.000464	  0.011722	  0.060311	  0.524883	  0.232576	  0.139363	  1.027530	
1.2825	  0.008724	  0.030799	  0.044625	  0.414885	  0.194039	  0.438476	  0.079756	  0.015017	  0.005848	  0.000114	  0.011876	  0.060476	  0.522495	  0.229343	  0.137960	  1.016908	
1.283	  0.008833	  0.030811	  0.045218	  0.413426	  0.194869	  0.434873	  0.078822	  0.014684	  0.005666	  0.000000	  0.012033	  0.060639	  0.520041	  0.226192	  0.136551	  1.006279	
1.2835	  0.008939	  0.030822	  0.045827	  0.411930	  0.195674	  0.431287	  0.077898	  0.014362	  0.005501	  0.000000	  0.012194	  0.060801	  0.517522	  0.223121	  0.135136	  0.995650	
1.284	  0.009042	  0.030832	  0.046450	  0.410399	  0.196453	  0.427722	  0.076986	  0.014053	  0.005354	  0.000000	  0.012358	  0.060961	  0.514939	  0.220127	  0.133716	  0.985029	
1.2845	  0.009142	  0.030840	  0.047088	  0.408834	  0.197207	  0.424180	  0.076084	  0.013755	  0.005224	  0.000000	  0.012526	  0.061121	  0.512293	  0.217209	  0.132291	  0.974423	
1.285	  0.009239	  0.030847	  0.047743	  0.407238	  0.197935	  0.420664	  0.075192	  0.013469	  0.005109	  0.000000	  0.012698	  0.061279	  0.509587	  0.214365	  0.130862	  0.963842	
1.2855	  0.009334	  0.030853	  0.048413	  0.405614	  0.198637	  0.417179	  0.074311	  0.013194	  0.005011	  0.000000	  0.012874	  0.061436	  0.506821	  0.211593	  0.129430	  0.953290	
1.286	  0.009426	  0.030858	  0.049100	  0.403963	  0.199314	  0.413727	  0.073441	  0.012931	  0.004927	  0.000000	  0.013053	  0.061592	  0.503998	  0.208890	  0.127996	  0.942776	
1.2865	  0.009515	  0.030862	  0.049803	  0.402289	  0.199964	  0.410312	  0.072581	  0.012678	  0.004859	  0.000000	  0.013236	  0.061747	  0.501120	  0.206255	  0.126559	  0.932306	
1.287	  0.009602	  0.030866	  0.050523	  0.400593	  0.200588	  0.406935	  0.071731	  0.012435	  0.004804	  0.000000	  0.013424	  0.061901	  0.498188	  0.203686	  0.125121	  0.921886	
1.2875	  0.009686	  0.030868	  0.051261	  0.398877	  0.201185	  0.403601	  0.070891	  0.012203	  0.004763	  0.000000	  0.013615	  0.062054	  0.495207	  0.201181	  0.123681	  0.911522	
1.288	  0.009767	  0.030871	  0.052016	  0.397144	  0.201756	  0.400312	  0.070062	  0.011981	  0.004736	  0.000000	  0.013810	  0.062206	  0.492177	  0.198738	  0.122241	  0.901220	
1.2885	  0.009847	  0.030872	  0.052789	  0.395396	  0.202300	  0.397070	  0.069241	  0.011769	  0.004721	  0.000000	  0.014009	  0.062357	  0.489102	  0.196355	  0.120802	  0.890985	
1.289	  0.009924	  0.030874	  0.053580	  0.393634	  0.202818	  0.393878	  0.068431	  0.011567	  0.004718	  0.000000	  0.014213	  0.062507	  0.485984	  0.194030	  0.119363	  0.880822	
1.2895	  0.009999	  0.030875	  0.054389	  0.391860	  0.203310	  0.390738	  0.067630	  0.011374	  0.004728	  0.000000	  0.014420	  0.062656	  0.482825	  0.191761	  0.117926	  0.870736	
1.29	  0.010071	  0.030876	  0.055217	  0.390077	  0.203775	  0.387654	  0.066838	  0.011191	  0.004748	  0.000000	  0.014632	  0.062805	  0.479630	  0.189547	  0.116490	  0.860733	
1.2905	  0.010142	  0.030877	  0.056064	  0.388285	  0.204214	  0.384627	  0.066055	  0.011017	  0.004780	  0.000000	  0.014848	  0.062952	  0.476399	  0.187385	  0.115058	  0.850815	
1.291	  0.010210	  0.030878	  0.056930	  0.386486	  0.204627	  0.381660	  0.065282	  0.010851	  0.004822	  0.000000	  0.015067	  0.063099	  0.473135	  0.185273	  0.113629	  0.840988	
1.2915	  0.010276	  0.030879	  0.057815	  0.384682	  0.205014	  0.378756	  0.064517	  0.010695	  0.004874	  0.000000	  0.015292	  0.063245	  0.469843	  0.183211	  0.112203	  0.831255	
